<svg
        width="16"
        height="16"
        viewBox="0 0 16 16"
        fill="none"
        xmlns="http://www.w3.org/2000/svg"
>
    <path
            d="M11.9895 9.67095C12.0045 9.92046 12.265 10.0888 12.4767 9.95592C13.7922 9.13063 14.6667 7.66744 14.6667 5.99998C14.6667 3.42265 12.5774 1.33331 10 1.33331C8.33257 1.33331 6.86938 2.20785 6.04409 3.52327C5.91125 3.73501 6.07955 3.99552 6.32906 4.01052C9.31295 4.1899 11.81 6.68964 11.9895 9.67095Z"
            fill="#3772FF"
    />
    <path
            d="M10.6667 9.99998C10.6667 12.5773 8.57737 14.6666 6.00004 14.6666C3.42271 14.6666 1.33337 12.5773 1.33337 9.99998C1.33337 7.42265 3.42271 5.33331 6.00004 5.33331C8.57737 5.33331 10.6667 7.42265 10.6667 9.99998Z"
            fill="#3772FF"
    />
</svg>
