<svg width="20" height="20" viewBox="0 0 20 20" fill="none" xmlns="http://www.w3.org/2000/svg">
<path fill-rule="evenodd" clip-rule="evenodd" d="M8.33333 8.33331C8.79357 8.33331 9.16667 8.70641 9.16667 9.16665V13.3333C9.16667 13.7936 8.79357 14.1666 8.33333 14.1666C7.8731 14.1666 7.5 13.7936 7.5 13.3333V9.16665C7.5 8.70641 7.8731 8.33331 8.33333 8.33331Z" fill="#6F767E"/>
<path fill-rule="evenodd" clip-rule="evenodd" d="M11.6667 8.33331C12.1269 8.33331 12.5 8.70641 12.5 9.16665V13.3333C12.5 13.7936 12.1269 14.1666 11.6667 14.1666C11.2065 14.1666 10.8334 13.7936 10.8334 13.3333V9.16665C10.8334 8.70641 11.2065 8.33331 11.6667 8.33331Z" fill="#6F767E"/>
<path fill-rule="evenodd" clip-rule="evenodd" d="M8.33329 1.66663C6.95258 1.66663 5.83329 2.78591 5.83329 4.16663H3.33329H2.49996C2.03972 4.16663 1.66663 4.53972 1.66663 4.99996C1.66663 5.4602 2.03972 5.83329 2.49996 5.83329H3.33329V15.8333C3.33329 17.214 4.45258 18.3333 5.83329 18.3333H14.1666C15.5473 18.3333 16.6666 17.214 16.6666 15.8333V5.83329H17.5C17.9602 5.83329 18.3333 5.4602 18.3333 4.99996C18.3333 4.53972 17.9602 4.16663 17.5 4.16663H16.6666H14.1666C14.1666 2.78591 13.0473 1.66663 11.6666 1.66663H8.33329ZM12.5 4.16663C12.5 3.70639 12.1269 3.33329 11.6666 3.33329H8.33329C7.87306 3.33329 7.49996 3.70639 7.49996 4.16663H12.5ZM5.83329 5.83329H4.99996V15.8333C4.99996 16.2935 5.37306 16.6666 5.83329 16.6666H14.1666C14.6269 16.6666 15 16.2935 15 15.8333V5.83329H14.1666H5.83329Z" fill="#6F767E"/>
</svg>
