<svg width="20" height="20" viewBox="0 0 20 20" fill="none" xmlns="http://www.w3.org/2000/svg">
<path fill-rule="evenodd" clip-rule="evenodd" d="M12.1129 3.17303C13.0893 2.19672 14.6722 2.19672 15.6485 3.17303L16.827 4.35154C17.8033 5.32785 17.8033 6.91076 16.827 7.88707L8.16657 16.5475C8.05023 16.6638 7.90207 16.7431 7.74074 16.7754L3.32132 17.6593C2.73822 17.7759 2.22412 17.2618 2.34074 16.6787L3.22463 12.2593C3.25689 12.098 3.33619 11.9498 3.45252 11.8335L12.1129 3.17303ZM14.47 4.35154L15.6485 5.53005C15.9739 5.85549 15.9739 6.38313 15.6485 6.70856L14.47 7.88708L12.1129 5.53005L13.2915 4.35154C13.6169 4.0261 14.1445 4.0261 14.47 4.35154ZM10.9344 6.70857L4.80944 12.8336L4.22019 15.7798L7.16647 15.1906L13.2915 9.06559L10.9344 6.70857Z" fill="#6F767E"/>
</svg>
