<svg width="18" height="18" viewBox="0 0 18 18" fill="none" xmlns="http://www.w3.org/2000/svg">
<circle cx="9" cy="9" r="9" fill="#7F6EE9" fill-opacity="0.2"/>
<path d="M9.20029 2.26917V2.27556C9.20668 2.30751 9.20668 2.34585 9.20668 2.38419V6.99129C9.20029 7.01685 9.18112 7.02324 9.16195 7.03602C9.02776 7.09992 8.89997 7.15742 8.76578 7.21493C8.58047 7.298 8.38878 7.38746 8.20347 7.47053L7.53253 7.77724C7.34723 7.86031 7.16192 7.94338 6.983 8.02645C6.76575 8.12869 6.5421 8.22453 6.32485 8.32677C6.13954 8.40984 5.95423 8.4993 5.76254 8.58237C5.60918 8.65266 5.45582 8.71655 5.30886 8.78684C5.29608 8.79323 5.2833 8.79962 5.27052 8.79962C5.26413 8.79962 5.26413 8.79962 5.25774 8.79323L5.43026 8.50569C5.76254 7.95616 6.08842 7.41302 6.42069 6.86349C6.77214 6.27562 7.12997 5.68775 7.48141 5.09988C7.8073 4.55675 8.13957 4.01361 8.46545 3.47047C8.70188 3.07429 8.94469 2.67812 9.18112 2.28195C9.18751 2.26917 9.1939 2.26278 9.1939 2.25H9.20029C9.1939 2.25639 9.20029 2.26278 9.20029 2.26917Z" fill="#F3F3F3"/>
<path d="M13.1222 8.79319L13.1286 8.79958L12.1893 9.3555L9.23715 11.0999C9.22437 11.1063 9.21159 11.1127 9.2052 11.1191C9.18604 11.1191 9.18604 11.0999 9.18604 11.0935V11.036V7.08709C9.18604 7.06792 9.18604 7.04236 9.19243 7.02319C9.19881 6.99764 9.21798 7.00403 9.23715 7.01041C9.32022 7.04875 9.40968 7.08709 9.49275 7.12543C9.74195 7.24045 9.99116 7.35547 10.2404 7.4641C10.4576 7.55994 10.6685 7.66218 10.8857 7.75803C11.103 7.85388 11.3203 7.95612 11.5375 8.05196C11.7228 8.13503 11.9145 8.22449 12.0998 8.30756C12.2851 8.39063 12.4768 8.48009 12.6621 8.56315C12.8091 8.62705 12.9561 8.69734 13.103 8.76124C13.103 8.78041 13.1094 8.7868 13.1222 8.79319Z" fill="#8A8DA7"/>
<path d="M9.19841 15.0872C9.19841 15.0936 9.19202 15.1 9.19202 15.1063H9.18563C9.18563 15.0936 9.17285 15.0872 9.16646 15.0744C8.77029 14.5185 8.37412 13.9562 7.97795 13.4003C7.57538 12.8316 7.16643 12.2565 6.76387 11.6878C6.37409 11.1382 5.97792 10.5823 5.58813 10.0328C5.48589 9.88582 5.38366 9.74524 5.28142 9.59828C5.27503 9.5855 5.26864 9.57911 5.25586 9.55994C5.27503 9.55994 5.28781 9.57272 5.2942 9.57911C5.85012 9.90499 6.39965 10.2309 6.95557 10.5568C7.59455 10.9338 8.22715 11.3108 8.86614 11.6878L9.19202 11.8795C9.2048 11.8922 9.2048 11.905 9.2048 11.9178V14.9977C9.2048 15.0297 9.2048 15.0616 9.19841 15.0872Z" fill="#F3F3F3"/>
<path d="M5.25 8.80609V8.79971C5.45448 8.71025 5.65256 8.6144 5.85704 8.52494C6.11902 8.40353 6.38101 8.28852 6.64299 8.16711C6.84108 8.07765 7.04555 7.9818 7.24364 7.89234C7.53758 7.75816 7.82512 7.63036 8.11905 7.49617C8.31714 7.40671 8.51523 7.31725 8.7197 7.22141C8.86028 7.15751 9.00725 7.09361 9.14782 7.02971C9.1606 7.02332 9.17977 7.01693 9.18616 7.00415C9.19255 7.00415 9.19255 7.01054 9.18616 7.01693V11.0745C9.18616 11.0937 9.17977 11.1128 9.19255 11.1256C9.17977 11.1448 9.16699 11.1256 9.1606 11.1192C9.1031 11.0873 9.04559 11.0553 8.98808 11.017C7.75483 10.2885 6.5152 9.55371 5.28195 8.82526C5.27556 8.81887 5.26278 8.81248 5.25 8.80609Z" fill="#7F6EE9"/>
<path d="M13.1089 9.55994H13.1153C13.1153 9.57272 13.1025 9.5855 13.0961 9.59828C11.9204 11.2533 10.7446 12.9146 9.5689 14.5696C9.44749 14.7421 9.31969 14.9147 9.19828 15.0872C9.19189 15.0808 9.19189 15.0744 9.19189 15.068V15.0297V11.9306V11.8731C9.46027 11.7133 9.72225 11.56 9.99063 11.4002C11.0258 10.7868 12.0609 10.1798 13.0897 9.56633C13.0961 9.57272 13.1025 9.56633 13.1089 9.55994Z" fill="#7F6EE9"/>
<path d="M9.19296 7.01692V7.00414V6.9658V2.32675C9.19296 2.30758 9.18657 2.2948 9.19935 2.27563C10.4965 4.42902 11.7936 6.57602 13.0844 8.72941C13.0972 8.74858 13.1163 8.77414 13.1227 8.7997C13.0333 8.76775 12.9502 8.72302 12.8671 8.68468C12.7649 8.63995 12.6563 8.58883 12.554 8.5441C12.4901 8.51215 12.4198 8.48659 12.3559 8.45464C12.2473 8.40353 12.1387 8.3588 12.0301 8.30768C11.9662 8.28212 11.9023 8.25017 11.8384 8.21822L11.4166 8.02652C11.3463 7.99457 11.2761 7.96262 11.1994 7.93067L10.8927 7.79649C10.8288 7.77093 10.7649 7.73898 10.701 7.70703L10.2792 7.51533C10.2089 7.48338 10.1387 7.45143 10.062 7.41948L9.75526 7.2853C9.68498 7.25335 9.62108 7.2214 9.55079 7.18945C9.42938 7.13194 9.30797 7.07443 9.18018 7.02331C9.19935 7.01692 9.19296 7.01692 9.19296 7.01692Z" fill="#7F6EE9"/>
</svg>
