<svg width="16" height="14" viewBox="0 0 16 14" fill="none" xmlns="http://www.w3.org/2000/svg">
<path fill-rule="evenodd" clip-rule="evenodd" d="M7.99974 12.2717C4.9337 10.5254 3.22366 8.78975 2.39675 7.28381C1.55041 5.74248 1.62425 4.4443 2.09389 3.52293C3.05921 1.62911 5.80427 1.02353 7.47678 3.13885L7.9997 3.80021L8.52266 3.13888C10.1955 1.02347 12.9407 1.62916 13.906 3.52293C14.3756 4.44428 14.4494 5.74246 13.603 7.28379C12.776 8.78974 11.0659 10.5254 7.99974 12.2717ZM7.99976 1.73746C5.64696 -0.498283 2.17604 0.425744 0.905976 2.91743C0.208948 4.2849 0.199427 6.05232 1.22802 7.92556C2.24749 9.78218 4.28009 11.7419 7.67724 13.6196L7.99973 13.7978L8.32222 13.6196C11.7195 11.7419 13.7522 9.78219 14.7717 7.92557C15.8004 6.05234 15.7909 4.28492 15.0939 2.91743C13.8238 0.425697 10.3528 -0.498249 7.99976 1.73746Z" fill="#FF72D2"/>
</svg>
