<svg width="26" height="28" viewBox="0 0 26 28" fill="none" xmlns="http://www.w3.org/2000/svg">
<path d="M4.10769 22.0207L4.6077 21.1547L4.1077 22.0207L10.5 25.7113C12.047 26.6045 13.953 26.6045 15.5 25.7113L21.8923 22.0207C23.4393 21.1276 24.3923 19.4769 24.3923 17.6906V10.3094C24.3923 8.52307 23.4393 6.87244 21.8923 5.97927L15.5 2.28868C13.953 1.39551 12.047 1.39551 10.5 2.28868L4.1077 5.97927C2.56069 6.87244 1.6077 8.52307 1.6077 10.3094V17.6906C1.6077 19.4769 2.56069 21.1276 4.10769 22.0207Z" fill="#45B36B" stroke="#23262F" stroke-width="2"/>
<path d="M12.1024 9.56344C12.207 9.38047 12.0522 9.15816 11.8443 9.19281L10.8726 9.35476C10.7241 9.37951 10.631 9.52897 10.6742 9.67319L10.9769 10.6821C11.04 10.8925 11.3244 10.925 11.4334 10.7343L12.1024 9.56344Z" fill="#23262F"/>
<path d="M9.81664 10.2957C9.7609 10.1099 9.52488 10.0565 9.39829 10.2034C9.00573 10.6592 8.63496 11.138 8.25102 11.5988C8.22965 11.6244 8.20927 11.6506 8.18986 11.6773C8.08574 11.8204 8.20404 12 8.38104 12H9.9919C10.1594 12 10.2795 11.8385 10.2314 11.6781L9.81664 10.2957Z" fill="#23262F"/>
<path d="M8.30819 13C8.14002 13 8.02062 13.1639 8.10483 13.3095C8.13185 13.3562 8.1616 13.4018 8.1941 13.4461L11.7907 18.3506C11.8508 18.4326 11.9172 18.5064 11.9886 18.5719C12.1439 18.7145 12.3386 18.5502 12.2765 18.3487L10.6826 13.1764C10.6503 13.0715 10.5534 13 10.4437 13H8.30819Z" fill="#23262F"/>
<path d="M13.7238 18.3488C13.6617 18.5503 13.8563 18.7147 14.0116 18.5721C14.0831 18.5065 14.1495 18.4327 14.2097 18.3506L17.8063 13.4461C17.8388 13.4018 17.8686 13.3562 17.8956 13.3095C17.9798 13.1639 17.8604 13 17.6922 13H15.5567C15.4469 13 15.35 13.0715 15.3177 13.1764L13.7238 18.3488Z" fill="#23262F"/>
<path d="M17.6189 12C17.7959 12 17.9142 11.8205 17.8101 11.6773C17.7907 11.6507 17.7703 11.6245 17.7489 11.5988C17.365 11.1381 16.9942 10.6592 16.6016 10.2034C16.475 10.0565 16.239 10.1099 16.1833 10.2957L15.7685 11.6782C15.7204 11.8386 15.8405 12 16.008 12H17.6189Z" fill="#23262F"/>
<path d="M15.1277 9.35453C15.2762 9.37928 15.3693 9.52874 15.3261 9.67296L15.0234 10.6819C14.9603 10.8924 14.6759 10.9249 14.5669 10.7341L13.8978 9.5632C13.7932 9.38022 13.9481 9.15792 14.1559 9.19256L15.1277 9.35453Z" fill="#23262F"/>
<path d="M13 10.0078L13.9247 11.626C14.0199 11.7927 13.8996 12 13.7076 12H12.2924C12.1004 12 11.9801 11.7927 12.0753 11.626L13 10.0078Z" fill="#23262F"/>
<path d="M13.2388 16.5232C13.1664 16.7586 12.8333 16.7586 12.7609 16.5232L11.7764 13.3235C11.7269 13.1628 11.8471 13 12.0153 13H13.9844C14.1526 13 14.2728 13.1628 14.2233 13.3235L13.2388 16.5232Z" fill="#23262F"/>
</svg>
